PathFileType	4	(X/Y/Z)	C:/Users/beibeiliu/ov580/test_trc/capture2\sequence.17_training_dense_right.trc
DataRate	CameraRate	NumFrames	NumMarkers	Units	OrigDataRate	OrigDataStartFrame	OrigNumFrames
120	120	23	19	mm	120	101	400
Frame#	Time	ThumbCMC			ThumbMCP			ThumbIP			ThumbTip			IndexMCP			IndexPIP			IndexTip			MiddleMCP			MiddlePIP			MiddleTip			RingMCP			RingPIP			RingTip			PinkyMCP			PinkyPIP			PinkyTip			BackHand1			BackHand2			BackHand3	
		X0	Y0	Z0	X1	Y1	Z1	X2	Y2	Z2	X3	Y3	Z3	X4	Y4	Z4	X5	Y5	Z5	X6	Y6	Z6	X7	Y7	Z7	X8	Y8	Z8	X9	Y9	Z9	X10	Y10	Z10	X11	Y11	Z11	X12	Y12	Z12	X13	Y13	Z13	X14	Y14	Z14	X15	Y15	Z15	X16	Y16	Z16	X17	Y17	Z17	X18	Y18	Z18	
100	0.833333	102.377	51.0968	62.1947	84.3787	68.1517	42.2897	87.6143	86.7665	21.1054	116.404	88.7996	9.32416	118.241	121.232	37.3016	113.598	136.98	9.60843	108.611	111.74	-8.74817	134.921	127.4	30.9901	131.053	136.85	0.291546	120.789	106.097	-12.0411	153.332	119.374	26.7242	145.229	128.756	-3.255	133.142	95.7047	-11.0712	168.867	103.035	23.6709	159.963	117.983	-0.306783	143.36	92.1364	-14.2925	156.009	79.9143	57.154	163.429	56.8753	72.9338	129.874	73.1236	73.7439	
101	0.841667	100.963	53.566	61.0636	89.5926	68.366	40.4998	91.1861	89.7549	18.3671	114.509	90.2587	5.37891	116.713	122.776	36.1322	115.171	136.284	9.59597	109.065	107.358	-10.4891	137.076	127.727	29.3979	131.784	136.634	1.46036	120.96	101.894	-12.9633	151.772	118.934	25.6594	147.07	126.294	-4.01535	133.913	96.1587	-12.8847	168.408	99.4876	22.6847	161.033	114.453	-2.50923	143.289	91.1657	-15.8	159.73	75.5495	56.8413	160.872	53.2257	72.7945	132.625	71.9717	71.7942	
102	0.85	104.442	49.5945	58.8797	86.8346	65.1037	39.1953	90.8646	86.1423	15.6448	114.094	84.424	4.32515	119.087	117.089	33.9659	118.683	132.709	6.83675	110.943	104.815	-12.6778	138.08	123.052	28.5861	134.358	133.112	-3.42677	125.34	96.7187	-14.9348	155.203	113.993	23.4084	148.483	124.336	-5.20434	135.887	94.1604	-15.7932	169.715	100.781	21.0934	163.616	112.195	-4.09551	147.113	88.7471	-17.7205	158.555	78.8484	54.2704	163.01	51.467	73.3078	133.081	69.2933	70.2788	
103	0.858333	100.826	45.1813	58.4132	87.1943	60.9018	36.9778	91.7726	79.2543	15.2693	118.524	82.022	0.532492	121.448	115.36	28.0186	116.067	126.859	-0.317	107.448	98.209	-15.0366	139.893	118.949	23.897	132.447	128.601	-6.44531	123.253	96.4746	-17.6946	153.784	113.46	20.1551	150.867	120.094	-8.0995	139.165	89.7131	-18.2941	172.325	98.0589	18.6242	164.762	109.886	-5.51207	147.14	86.0826	-20.6619	160.501	75.0252	52.663	160.547	50.7542	72.2108	127.688	66.9128	69.3331	
104	0.866667	104.744	40.4521	54.8356	84.3036	58.3843	33.5677	92.3001	74.9714	11.7593	114.751	75.7312	-0.722257	115.643	109.971	26.1379	114.963	122.531	-4.82762	112.219	91.8621	-17.9294	134.009	118.01	20.9839	135.055	124.123	-10.1858	127.574	89.8192	-20.8642	155.206	109.121	17.4922	148.01	115.77	-12.4061	141.783	82.7899	-20.1269	171.492	91.8337	18.3539	166.298	105.22	-8.92996	145.28	79.7241	-21.8248	158.691	69.8363	53.4657	160.942	46.6516	70.5974	130.823	61.8485	65.0523	
105	0.875	102.792	38.3148	53.7281	84.2121	52.7477	31.3828	89.4143	71.5991	7.39329	116.997	71.5879	-3.42593	115.256	107.102	22.1598	114.812	117.642	-5.79774	111.165	89.3641	-21.0893	134.185	112.637	17.511	134.267	120.36	-11.4295	126.164	84.383	-22.2823	151.008	107.725	14.6663	146.273	111.313	-14.6043	138.846	82.0881	-23.3752	169.75	89.7487	16.7638	162.092	101.806	-11.1151	147.809	78.027	-23.9842	156.566	69.4222	49.5676	157.265	46.7939	70.1156	125.591	61.1289	62.0168	
106	0.883333	98.6665	34.9486	54.1409	82.86	49.0906	31.0722	89.3952	67.9419	6.7804	112.999	67.503	-4.28986	117.053	102.995	19.7453	117.272	114.146	-6.31602	111.225	83.2268	-22.8049	135.395	110.292	14.5437	133.125	115.32	-16.5579	124.753	77.4572	-23.1258	149.974	104.537	14.0643	147.116	109.689	-14.5621	136.905	80.4852	-24.1406	170.722	85.7065	15.1468	164.414	97.9482	-14.3655	151.281	74.7576	-27.1156	159.871	68.647	49.0658	161.514	44.772	69.2593	126.389	60.7398	61.4563	
107	0.891667	99.5076	32.4701	53.7457	87.2956	46.5656	30.1484	90.501	65.424	6.54435	114.203	67.2461	-6.3626	113.548	101.567	21.2327	110.946	112.856	-9.27969	107.393	79.7104	-22.5459	131.604	110.56	14.7203	129.009	114.303	-15.6322	126.946	79.7649	-25.5615	148.75	101.907	13.6157	147.895	106.277	-18.5318	136.066	77.8886	-23.8069	169.33	87.7698	13.9449	163.974	99.5107	-11.2665	145.221	74.5097	-25.6626	158.819	66.2395	47.7391	157.927	46.7283	67.5924	126.214	57.5445	62.7077	
108	0.9	102.327	31.9501	53.411	84.4713	48.1709	29.5952	84.9085	65.0514	6.19353	113.828	66.7564	-4.90119	113.031	99.9702	22.2922	111.446	111.464	-9.8547	105.519	80.8183	-22.9584	129.093	105.462	18.1723	131.422	115.332	-14.5803	122.437	80.6666	-24.6958	148.153	104.398	13.2089	146.804	107.458	-17.3001	137.015	74.2266	-23.9724	166.83	90.3082	14.0913	160.905	99.8259	-9.64724	145.473	73.233	-26.1543	158.266	64.7317	48.1391	155.663	46.3561	68.7538	125.732	58.476	64.3539	
109	0.908333	98.9629	33.6459	54.7241	84.4633	46.9552	32.5299	87.0333	67.2506	6.80384	114.146	68.0092	-3.59639	109.796	100.063	23.7824	110.053	114.261	-4.9036	105.6	82.0873	-23.5233	131.536	110.679	16.2855	125.15	116.368	-12.6724	123.705	81.691	-24.5724	150.395	104.061	14.3145	147.143	110.285	-14.3118	136.179	78.3782	-23.7371	164.009	89.6921	16.7538	159.503	100.246	-11.2939	143.608	75.6304	-22.5339	155.55	66.0468	49.2562	158.699	46.7947	69.425	126.039	56.1893	63.7207	
110	0.916667	97.4692	38.1284	54.6459	82.9444	49.5244	31.5754	82.3958	67.6613	9.29504	113.133	73.0087	-5.41544	113.74	101.292	25.0071	110.274	114.035	-5.75818	102.829	86.6592	-21.8489	127.185	109.372	20.8892	126.272	115.75	-13.9432	120.796	81.4269	-22.4786	148.704	102.818	17.1239	140.077	110.822	-13.9117	132.922	82.8975	-21.9698	165.063	90.4844	17.6797	157.091	102.419	-7.39332	143.755	76.2487	-24.4005	156.571	65.6998	50.4901	157.181	43.3161	69.7834	124.98	60.5272	65.3604	
111	0.925	100.097	38.4859	54.5095	83.2706	49.6846	33.5714	81.7649	68.2884	11.7778	109.377	73.4781	-3.23234	112.077	104.785	26.4218	108.116	117.101	-3.74706	100.619	88.7013	-18.899	129.467	111.3	21.421	123.463	120.613	-8.89562	117.405	82.1733	-20.0335	149.102	105.27	17.4785	140.306	112.395	-10.7991	131.333	80.5249	-19.7746	162.859	88.402	18.1791	157.343	103.12	-7.04167	143.452	79.9302	-22.3963	151.415	70.1605	50.5188	159.129	46.5967	69.219	124.445	58.3798	68.8638	
112	0.933333	97.9361	39.8603	55.6583	84.3546	53.4289	33.5385	82.3242	69.7752	12.2963	108.976	75.1985	-3.77269	107.824	105.715	27.4642	107.66	118.391	-2.72893	102.41	93.1558	-17.6781	124.687	116.036	20.2403	124.718	122.494	-8.45472	114.055	86.6953	-19.9661	144.148	108.761	18.644	138.54	113.749	-12.003	130.554	80.4727	-18.7017	163.886	91.3087	18.1259	157.998	104.71	-9.44873	141.042	79.6915	-20.2514	153.767	72.8209	51.274	156.489	48.7938	69.5729	123.4	60.4933	65.7507	
113	0.941667	94.4832	38.8691	58.0588	77.1007	52.054	34.896	80.3579	74.0932	11.3779	104.897	76.8725	-3.08177	109.486	107.413	28.8109	104.38	122.188	1.89147	101.779	90.039	-17.2828	129.149	114.127	22.16	124.513	120.804	-10.8668	115.966	90.7902	-19.9521	142.799	109.6	19.1042	141.895	115.569	-11.8133	128.53	82.5217	-18.324	162.788	95.8621	18.507	153.183	106.801	-6.90142	141.391	82.5168	-21.0029	150.713	72.9973	50.5557	153.312	46.1089	70.4597	121.612	59.6173	67.6466	
114	0.95	93.8412	41.8998	56.6924	78.5279	53.2467	36.4327	80.9015	71.1521	15.4622	107.076	77.5668	0.366756	106.856	109.735	29.5141	104.996	122.015	1.02426	101.312	93.0854	-15.8905	128.6	118.143	23.8451	121.278	125.53	-4.76616	113.636	92.9099	-17.9305	141.458	111.787	21.6555	138.597	117.273	-10.7055	130.449	88.5764	-19.5285	163.543	95.3921	20.9982	154.367	108.251	-6.61793	141.197	84.687	-20.0382	151.992	70.552	54.8557	150.638	51.9852	71.0336	119.451	60.1418	68.7817	
115	0.958333	93.0976	38.7081	59.4647	75.385	54.8638	37.3755	77.4196	73.8859	16.156	105.36	76.288	3.02679	109.368	108.759	31.8685	104.514	123.342	2.36714	95.4503	93.7087	-13.8228	125.095	117.929	26.5777	122.352	124.292	-7.56186	110.285	89.9731	-15.5095	145.205	108.455	22.8402	137.058	119.73	-5.87113	129.05	88.7731	-17.6766	159.227	96.3001	21.5692	151.229	108.731	-3.37486	136.175	87.4198	-16.9542	150.102	69.7885	55.0904	150.759	48.2044	71.6361	122.21	64.0793	70.0698	
116	0.966667	95.5484	42.9806	58.3359	76.753	57.3099	37.2658	77.8818	77.5575	15.256	103.213	79.2743	3.50236	108.502	110.063	32.5113	102.46	124.031	1.9973	98.8021	92.6408	-12.3367	122.874	119.676	26.5342	122.06	123.649	-6.27958	113.657	90.326	-14.7134	141.832	112.703	22.2665	137.85	119.305	-6.61176	127.583	89.9951	-15.8198	156.991	96.6549	23.4014	154.049	110.461	-0.447359	133.923	87.1539	-14.0585	147.604	73.907	54.0236	149.779	47.555	75.2418	118.745	62.2391	72.9839	
117	0.975	95.1281	42.9767	57.4127	74.9693	57.0468	37.7027	82.3191	75.7019	16.8861	106.309	80.9986	1.08102	105.459	113.803	31.1062	102.508	123.749	2.86714	97.678	93.5873	-12.5466	123.803	118.393	25.6835	119.9	126.654	-2.39731	112.369	90.0752	-14.2472	144.307	111.035	21.8	137.294	117.19	-6.36506	123.955	85.3618	-13.4617	160.164	97.7747	21.5358	153.845	109.047	-1.81875	133.356	83.4109	-14.173	146.724	73.1763	54.114	152.662	46.4841	71.5699	118.802	65.7015	68.584	
118	0.983333	92.1235	41.5463	58.8472	78.4298	59.2806	35.2306	79.399	75.1659	14.4846	106.381	79.0883	0.479428	106.578	109.107	29.7134	104.535	122.444	0.414228	96.4992	91.7381	-14.0029	124.658	113.913	23.6189	121.454	123.806	-6.54478	115.451	87.1483	-16.6349	145.366	111.144	17.6847	137.488	111.701	-12.5827	123.274	83.2261	-14.9444	159.789	90.6394	19.6684	153.065	102.507	-9.4018	135.483	80.9067	-16.6534	149.402	70.3416	54.215	152.173	46.6354	70.3586	120.247	66.3881	68.2271	
119	0.991667	91.3521	42.4546	55.2752	76.1003	57.8373	33.0898	81.3925	73.0128	12.1939	104.944	74.4201	-2.61602	106.423	106.622	24.9819	107.852	116.565	-6.36107	99.0844	87.2395	-17.0883	125.819	114.943	17.3522	122.047	118.379	-13.658	116.748	84.4364	-20.5785	142.281	104.783	15.1093	137.765	107.046	-16.8937	124.799	80.5314	-17.7879	161.96	86.606	15.8456	151.286	98.9016	-11.6222	134.221	74.8778	-19.4959	146.549	67.165	50.7739	147.801	49.1713	68.982	116.299	63.9559	64.8343	
120	1	88.0114	42.4991	54.5109	73.3212	59.423	29.4161	80.7131	71.5612	6.69276	103.905	70.7883	-6.62236	109.52	107.409	14.8987	106.629	113.174	-13.8183	100.875	82.504	-23.015	123.334	112.531	9.91071	124.314	114.897	-19.456	114.1	78.5223	-26.6261	143.062	101.562	8.77802	139.984	104.374	-21.6013	126.913	73.5108	-23.8922	161.009	83.741	11.1479	155.181	95.2928	-15.3058	134.32	69.5793	-24.6807	144.061	70.0864	45.2494	145.11	47.1398	69.8391	116.101	65.727	62.4998	
121	1.00833	85.1049	44.1957	52.0279	69.2411	53.3879	29.4002	77.9325	69.425	1.99131	100.544	66.6974	-11.5908	107.836	101.779	10.0725	103.846	106.823	-22.1937	97.4146	74.3899	-27.6823	126.871	104.93	5.11459	123.072	109.866	-26.5962	113.333	70.7136	-29.459	144.785	97.7835	3.32575	138.808	96.7318	-28.3973	121.877	68.3834	-27.0078	158.56	82.1828	6.53523	152.398	91.4884	-19.2886	133.934	64.6554	-30.1551	143.509	68.2955	42.5121	145.178	47.7462	64.1603	116.629	65.2697	55.9581	
122	1.01667	80.2251	44.9559	50.053	64.3657	52.8256	25.6256	71.8136	64.25	-0.136597	97.7034	60.9416	-12.0231	101.458	101.283	2.25106	100.662	101.903	-29.1294	93.5906	74.0818	-35.4264	120.647	102.022	-0.291523	121.163	103.1	-32.4891	107.947	66.7128	-34.7627	140.49	95.9108	-3.06336	134.236	92.9863	-33.6604	121.051	61.4559	-31.9041	151.341	81.5418	1.80563	149.573	87.1914	-23.1074	132.426	57.2346	-32.3328	141.895	69.1018	38.9462	142.369	47.1798	64.9049	108.06	64.8965	57.2956	
